HIERARCHY
ROOT Hips
{
	OFFSET 0.000000 0.000000 0.000000
	CHANNELS 6 Xposition Yposition Zposition Zrotation Yrotation Xrotation 
		JOINT LeftUpLeg
		{
			OFFSET 1.363060 -1.794630 0.839290
			CHANNELS 3 Zrotation Yrotation Xrotation
			JOINT LeftLeg
			{
				OFFSET 2.448110 -6.726130 0.000000
				CHANNELS 3 Zrotation Yrotation Xrotation
				JOINT LeftFoot
				{
					OFFSET 2.562200 -7.039590 0.000000
					CHANNELS 3 Zrotation Yrotation Xrotation
					JOINT LeftToeBase
					{
						OFFSET 0.157640 -0.433110 2.322550
						CHANNELS 3 Zrotation Yrotation Xrotation
						End Site
						{
							OFFSET 0.000000 0.000000 0.000000
						}
					}
				}
			}
		}
		JOINT RightUpLeg
		{
			OFFSET -1.305520 -1.794630 0.839290
			CHANNELS 3 Zrotation Yrotation Xrotation
			JOINT RightLeg
			{
				OFFSET -2.542530 -6.985550 0.000000
				CHANNELS 3 Zrotation Yrotation Xrotation
				JOINT RightFoot
				{
					OFFSET -2.568260 -7.056230 0.000000
					CHANNELS 3 Zrotation Yrotation Xrotation
					JOINT RightToeBase
					{
						OFFSET -0.164730 -0.452590 2.363150
						CHANNELS 3 Zrotation Yrotation Xrotation
						End Site
						{
							OFFSET 0.000000 0.000000 0.000000
						}
					}
				}
			}
		}
		JOINT Spine
		{
			OFFSET -0.000000 1.017795 0.000000
			CHANNELS 3 Zrotation Yrotation Xrotation
			JOINT Spine1
			{
				OFFSET 0.056720 2.048850 -0.042750
				CHANNELS 3 Zrotation Yrotation Xrotation
            JOINT Spine2
            {
                OFFSET -0.000000 1.017795 0.000000
                CHANNELS 3 Zrotation Yrotation Xrotation
					JOINT Neck1
					{
						OFFSET -0.054170 1.746240 0.172020
						CHANNELS 3 Zrotation Yrotation Xrotation
						JOINT Head
						{
							OFFSET 0.104070 1.761360 -0.123970
							CHANNELS 3 Zrotation Yrotation Xrotation
							End Site
							{
								OFFSET 0.000000 0.000000 0.000000
							}
						}
					}
				JOINT LeftShoulder
				{
					OFFSET 0.000000 0.000000 0.000000
					CHANNELS 3 Zrotation Yrotation Xrotation
					JOINT LeftArm
					{
						OFFSET 3.362410 1.200890 -0.311210
						CHANNELS 3 Zrotation Yrotation Xrotation
						JOINT LeftForeArm
						{
							OFFSET 4.983000 -0.000000 -0.000000
							CHANNELS 3 Zrotation Yrotation Xrotation
							JOINT LeftHand
							{
								OFFSET 3.483560 -0.000000 -0.000000
								CHANNELS 3 Zrotation Yrotation Xrotation
									End Site
									{
										OFFSET 0.000000 0.000000 0.000000
									}
							}
						}
					}
				}
				JOINT RightShoulder
				{
					OFFSET 0.000000 0.000000 0.000000
					CHANNELS 3 Zrotation Yrotation Xrotation
					JOINT RightArm
					{
						OFFSET -3.136600 1.374050 -0.404650
						CHANNELS 3 Zrotation Yrotation Xrotation
						JOINT RightForeArm
						{
							OFFSET -5.241900 -0.000000 -0.000000
							CHANNELS 3 Zrotation Yrotation Xrotation
							JOINT RightHand
							{
								OFFSET -3.444170 -0.000000 -0.000000
								CHANNELS 3 Zrotation Yrotation Xrotation
									End Site
									{
										OFFSET 0.000000 0.000000 0.000000
									}
							}
						}
					}
				}
			}
            }
		}
}
MOTION
Frames: 10
Frame Time: 0.008333
0.873979    17.992157    -0.049738    116.255643    88.551255    137.088685    -25.810884    -0.503228    -34.450773000000005    -3.586814    -0.320797    4.972340    -0.704201    -3.671452    18.780120    -1.003700    -0.000000    -55.183300    20.766700999999998    -11.402454    -7.421235    0.289356    -2.085024    30.102537    -1.008967    -5.075636    14.730791    -1.980401    0.000000    -63.678500    0.000000    0.000000    0.000000    -1.875836    -1.6174    -5.46375    -7.572427    -0.688512    -1.625724    7.2040310000000005    -9.651734    -5.3067720000000005    0.000000    0.000000    0.000000    6.492167    12.345255    -0.859218    -72.336037    32.833772    21.720595    179.729989    -62.470720    179.956255    5.082586    -6.895783    -0.324606    3.897677    -2.351372    -2.417971    89.764975    12.795205    35.855705    178.781077    70.360849    -179.982185    1.586090    13.552289    0.210278
1.117178    17.934754    -0.045049    117.655003    88.716217    138.251291    -25.940697    -0.6059539999999999    -34.494499000000005    -3.493629    -0.236458    6.012882    -0.641900    -3.204267    18.026408    -0.773401    -0.000000    -53.899300    20.528992000000002    -11.397916    -8.104040999999999    0.156215    -2.241476    32.869442    -1.113595    -5.619301    13.812558    -2.078000    0.000001    -63.088600    0.000000    0.000000    0.000000    -1.7320600000000002    -1.6435140000000001    -5.229907000000001    -7.492907    -0.698426    -1.599174    7.108080999999999    -9.647622    -5.391077999999999    0.000000    0.000000    0.000000    6.389177    12.455704    -0.821650    -72.809688    32.297045    21.593663    179.732471    -62.655979    179.956140    5.068163    -6.855996    -0.322088    3.880951    -2.355279    -2.416849    89.538926    12.559963    35.710539    178.833178    70.739345    -179.983922    1.455978    13.504462    0.192747
1.359167    17.865653    -0.039613    118.713475    88.865699    139.097408    -25.848340999999998    -1.088529    -34.387775    -3.344704    -0.156716    7.286162    -0.524423    -2.264093    16.811107    -0.342200    -0.000000    -51.798300    20.262175    -11.375004    -8.891487999999999    0.028367    -2.405099    35.682081    -1.196886    -5.996698    12.991030    -2.107300    0.000000    -62.517600    0.000000    0.000000    0.000000    -1.615358    -1.666125    -5.029917    -7.416912    -0.706142    -1.559216    7.0102709999999995    -9.657992    -5.480038    0.000000    0.000000    0.000000    6.303876    12.576897    -0.787289    -73.258209    31.636102    21.546782    179.738623    -62.928899    179.956110    5.048243    -6.818785    -0.319365    3.893954    -2.379902    -2.415562    89.299484    12.310308    35.519161    178.882718    71.130916    -179.985146    1.394239    13.416930    0.183598
1.600479    17.784539    -0.032926    119.050398    88.983996    139.256021    -25.5766    -1.94682    -34.154263    -3.152356    -0.087369    8.778569    -0.351459    -0.930954    15.122348    0.215399    -0.000000    -48.949499    19.956764    -11.333083    -9.787176    -0.094235    -2.575221    38.531695    -1.262678    -6.248206    12.211859    -2.086200    0.000000    -62.026499    0.000000    0.000000    0.000000    -1.545897    -1.693678    -4.8793299999999995    -7.348380    -0.715781    -1.508481    6.917485    -9.679447999999999    -5.573227    0.000000    0.000000    0.000000    6.235810    12.704480    -0.757296    -73.659748    30.868341    21.585135    179.749535    -63.280518    179.956177    5.025799    -6.786106    -0.316635    3.947798    -2.421149    -2.412204    89.050229    12.033854    35.276548    178.929245    71.532613    -179.985771    1.412567    13.294665    0.184431
1.841491    17.691127    -0.024712    118.461595    89.066613    138.525002    -25.207705    -3.081563    -33.897949999999994    -2.935096    -0.022527    10.583340    -0.130405    0.610559    12.902060    0.773500    0.000000    -45.266100    19.61535    -11.273285000000001    -10.79084    -0.211467    -2.751297    41.423030    -1.314984    -6.417888    11.392843    -2.028800    0.000000    -61.417400    0.000000    0.000000    0.000000    -1.5280079999999998    -1.731798    -4.784344    -7.290214    -0.730397    -1.453518    6.833209    -9.704042    -5.6669730000000005    0.000000    0.000000    0.000000    6.171281    12.827482    -0.732085    -73.994235    30.018604    21.704829    179.767013    -63.700502    179.956366    4.990139    -6.774849    -0.314097    4.045634    -2.469524    -2.404982    88.793544    11.712666    34.974108    178.974110    71.946053    -179.985862    1.505113    13.140492    0.194147
2.082636    17.585744    -0.014463    116.172473    89.086149    136.138901    -24.808134    -4.4648520000000005    -33.65177    -2.707256    0.034532    12.677045    0.141347    2.281971    10.190802    1.246700    -0.000001    -41.002100    19.217287    -11.190761    -11.906777    -0.324632    -2.934762    44.349899    -1.362004    -6.570408    10.484775    -1.954800    0.000000    -60.879500    0.000000    0.000000    0.000000    -1.5965440000000002    -1.789569    -4.7571200000000005    -7.245203    -0.753837    -1.395935    6.767203    -9.727749000000001    -5.760532    0.000000    0.000000    0.000000    6.109170    12.941854    -0.712291    -74.244923    29.090425    21.906529    179.791066    -64.197847    179.956620    4.977895    -6.765453    -0.313240    4.210017    -2.522532    -2.391278    88.520019    11.333695    34.611312    179.018960    72.379742    -179.985610    1.647506    12.979898    0.209658
2.323955    17.469011    -0.002157    111.949968    89.043157    131.860056    -24.465736    -5.949636    -33.52705    -2.485962    0.096327    15.153829    0.453795    3.906124    6.984456    1.522000    0.000001    -36.198600    18.76288    -11.078364    -13.127132    -0.436077    -3.125037    47.315332    -1.408813    -6.755841    9.422664    -1.874700    0.000000    -60.178501    0.000000    0.000000    0.000000    -1.753594    -1.86539    -4.793342    -7.214556    -0.785444    -1.346492    6.719200000000001    -9.737297    -5.845348    0.000000    0.000000    0.000000    6.024194    13.027945    -0.697319    -74.397894    28.110502    22.172182    179.822945    -64.761299    179.956937    4.981433    -6.777060    -0.314465    4.442118    -2.564094    -2.368757    88.227858    10.872791    34.177583    179.066801    72.846454    -179.985257    1.810248    12.817600    0.227269
2.565457    17.342174    0.012262    105.576440    88.932191    125.470457    -24.239729    -7.431951999999999    -33.569886    -2.283238    0.169906    17.999817    0.801162    5.403160    3.364043    1.545000    -0.000000    -31.097500    18.244954    -10.916595    -14.443253    -0.551410    -3.318607    50.308425    -1.462464    -7.030659    8.182165    -1.799801    -0.000000    -59.388200    0.000000    0.000000    0.000000    -2.014468    -1.949074    -4.889882    -7.197025    -0.819747    -1.302291    6.696166999999999    -9.736154    -5.92449    0.000000    0.000000    0.000000    5.916159    13.095737    -0.687904    -74.453850    27.059912    22.503937    179.860615    -65.418186    179.957172    5.057852    -6.775550    -0.319758    4.754701    -2.598966    -2.337034    87.902784    10.330021    33.685869    179.119935    73.365823    -179.985148    1.944531    12.685670    0.241392
2.806893    17.207226    0.028655    97.185263    88.757809    117.097570    -24.167676999999998    -8.788007    -33.819122    -2.107809    0.266569    21.197587    1.171897    6.710187    -0.565656    1.296499    -0.000000    -25.921000    17.667534    -10.680221    -15.842113    -0.676837    -3.508771    53.315501    -1.527321    -7.425818    6.753516    -1.729899    0.000000    -58.387600    0.000000    0.000000    0.000000    -2.3718709999999996    -2.025124    -5.038371    -7.192996    -0.849544    -1.277742    6.694069    -9.708149    -5.984795999999999    0.000000    0.000000    0.000000    5.752762    13.118221    -0.683216    -74.404549    25.973213    22.871789    179.903673    -66.144944    179.957273    5.204878    -6.774796    -0.329920    5.144995    -2.605216    -2.293375    87.544167    9.680246    33.125273    179.180711    73.954784    -179.985531    2.017332    12.580815    0.248336
3.047709    17.066702    0.046726    87.547489    88.534385    107.503955    -24.243685    -9.913105999999999    -34.27188    -1.963913    0.394616    24.667880    1.552088    7.814046    -4.652688    0.805200    -0.000000    -21.039300    17.060443    -10.339839000000001    -17.304192999999998    -0.817628    -3.685713    56.310393    -1.607839    -7.963750    5.148875    -1.659700    -0.000001    -57.120699    0.000000    0.000000    0.000000    -2.796596    -2.071136    -5.221957    -7.198121    -0.864205    -1.261502    6.717168999999999    -9.670315    -6.0372520000000005    0.000000    0.000000    0.000000    5.542519    13.125073    -0.683955    -74.268652    24.803408    23.286990    179.948837    -66.980027    179.957057    5.476142    -6.735166    -0.346242    5.611923    -2.602384    -2.240635    87.140303    8.946049    32.524499    179.249709    74.634878    -179.986680    1.983840    12.529119    0.243409
